<svg width="206.95999603271486" height="40.367291049141684" viewBox="0 0 410.15384615384613 80" class="looka-1j8o68f"><defs id="SvgjsDefs1163"></defs><g id="SvgjsG1164" featurekey="symbolContainer" transform="matrix(1,0,0,1,0,0)" fill="#ffaa64"><rect xmlns="http://www.w3.org/2000/svg" width="94" height="80" rx="10" ry="10"></rect></g><g id="SvgjsG1165" featurekey="uHI19F-0" transform="matrix(0.9582129288772661,0,0,0.9582129288772661,-4.892116138284425,-7.9160973723064885)" fill="#ffffff"><path xmlns="http://www.w3.org/2000/svg" d="M37.516,67.922c0.137,0.11,0.322,0.14,0.486,0.079l2.866-1.057l3.774,3.774l0.003-0.003  c0.005,0.005,0.007,0.013,0.013,0.019c0.093,0.084,0.213,0.131,0.337,0.131c0.02,0,0.041-0.001,0.061-0.004l26.203-3.203  c0.132-0.016,0.252-0.084,0.334-0.189c0.082-0.104,0.118-0.238,0.102-0.37l-3.536-28.13c-0.023-0.188-0.15-0.341-0.319-0.405v0  l-4.417-1.667c-0.057-0.021-0.116-0.032-0.177-0.032h-2.187v-3.333c0-0.082-0.02-0.162-0.058-0.234l-0.75-1.417  c-0.086-0.164-0.257-0.266-0.442-0.266h-0.242l-0.785-0.979c-0.095-0.119-0.238-0.188-0.39-0.188h-8.125  c-0.161,0-0.311,0.077-0.405,0.207l-1.25,1.729c-0.062,0.085-0.095,0.188-0.095,0.293v4.188h-0.592l-1.018-2.831  c-0.051-0.141-0.175-0.237-0.316-0.257l0,0l-3.697-0.524c-0.047-0.007-0.095-0.005-0.142,0.005l-1.688,0.377l-0.575-2.572  c-0.014-0.063-0.043-0.121-0.085-0.171l-0.824-0.964c-0.095-0.111-0.244-0.161-0.387-0.129l-0.187,0.042l-0.775-0.621  c-0.094-0.075-0.216-0.103-0.333-0.077l-6.271,1.403c-0.124,0.028-0.227,0.113-0.277,0.23l-0.667,1.55  c-0.033,0.077-0.041,0.162-0.022,0.242l0.723,3.232l-5.097,1.14l0.001,0.005c-0.067,0.016-0.131,0.042-0.183,0.09  c-0.09,0.083-0.136,0.203-0.126,0.325l2.055,23.988c0.012,0.139,0.096,0.26,0.22,0.321c0.125,0.062,0.273,0.053,0.389-0.022  l2.03-1.311l3.564,2.262l0.001-0.002c0.005,0.003,0.008,0.008,0.014,0.012c0.086,0.049,0.187,0.064,0.283,0.042  c0.016-0.003,0.031-0.008,0.046-0.013l3.58-1.273l-0.826,6.101C37.31,67.639,37.379,67.813,37.516,67.922z M44.885,58.133  l-0.027,0.849l-0.326,10.213l-3.184-3.184c-0.138-0.139-0.345-0.183-0.526-0.116l-2.387,0.88l0.784-5.789l0.119-0.881l2.982-22.034  l3.164,1.292L44.885,58.133z M61.058,37.865h2.096l1.767,0.667h-3.863V37.865z M67.221,39.532l3.418,27.195l-25.126,3.071  l0.356-11.176l0.027-0.849l0.582-18.241H67.221z M58.743,37.865v0.667h-6.35l0.002-0.667H58.743z M52.398,36.865l0.008-2.693  l0.365-0.365l4.558-0.019v3.077H52.398z M58.329,36.865v-3.081l0.245-0.001l0.169,0.36v2.722H58.329z M59.507,32.615l0.551,1.041  v4.876h-0.315v-4.5c0-0.073-0.016-0.146-0.047-0.212l-0.352-0.75c-0.082-0.175-0.259-0.288-0.453-0.288c0,0-0.001,0-0.001,0  l-6.328,0.026c-0.132,0-0.258,0.053-0.352,0.146l-0.656,0.656c-0.093,0.093-0.146,0.22-0.146,0.352l-0.009,2.902l-0.003,1  l-0.002,0.667h-0.418v-4.992l0.74-0.925H59.507z M49.516,32.839l1.005-1.391h7.629l0.133,0.167h-6.81  c-0.152,0-0.295,0.069-0.391,0.188l-1,1.25c-0.071,0.089-0.109,0.199-0.109,0.313v3.5h-0.458V32.839z M49.975,37.865v0.667h-3.881  l-1.634-0.667H49.975z M42.853,34.046l1.479,0.209l-2.982,0.667l-0.115-0.515L42.853,34.046z M39.132,30.623l0.605,0.709  l0.554,2.477l0.172,0.772l0.115,0.515l-0.243,0.054l-0.116-0.515l-0.172-0.772l-0.489-2.187c-0.013-0.056-0.038-0.11-0.073-0.156  l-0.4-0.518c-0.094-0.121-0.25-0.177-0.4-0.144c0,0,0,0-0.001,0l-4.879,1.112c-0.102,0.023-0.19,0.086-0.246,0.174l-0.394,0.62  c-0.056,0.087-0.075,0.194-0.052,0.297l0.494,2.241l0.17,0.773l0.114,0.515l-0.323,0.073l-0.115-0.515l-0.173-0.772l-0.574-2.566  l0.412-0.842L39.132,30.623z M39.448,34.808l0.116,0.515l-4.901,1.096l-0.114-0.515L39.448,34.808z M34.378,35.131L33.92,33.05  l0.219-0.344l3.514-0.801l0.531,2.375L34.378,35.131z M38.424,31.729l0.189-0.042l0.193,0.248l0.469,2.101l-0.319,0.071  L38.424,31.729z M31.995,31.274l5.889-1.317l0.132,0.106l-5.256,1.175c-0.117,0.026-0.216,0.104-0.27,0.212l-0.556,1.138  c-0.04,0.081-0.05,0.172-0.031,0.26l0.604,2.701l-0.354,0.079l-0.695-3.107L31.995,31.274z M32.681,36.321l0.115,0.515l-2.996,0.67  l-1.376-0.233L32.681,36.321z M30.881,59.534c-0.13-0.083-0.298-0.082-0.426,0.001l-1.691,1.091l-1.955-22.825l2.665,0.451  l4.415,23.189L30.881,59.534z M34.749,61.738l-4.479-23.527l3.084-0.69l1.093-0.244l5.674-1.269l1.016-0.227l5.143-1.15l0.803,2.235  h-5.171v0.006c-0.087,0-0.173,0.016-0.25,0.061c-0.134,0.077-0.224,0.212-0.245,0.366l-3.138,23.185L34.749,61.738z M82.172,44.906"></path></g><g id="SvgjsG1166" featurekey="8FbbNb-0" transform="matrix(2.918923540744296,0,0,2.918923540744296,110.03020096156514,3.7556527871235463)" fill="#ff8264"><path d="M3.16 4.880000000000001 l0.000019531 7 l0.04 0 c0.32 -0.49334 0.78334 -0.88334 1.39 -1.17 s1.2433 -0.43 1.91 -0.43 c1.4267 0 2.5866 0.47 3.48 1.41 s1.34 2.13 1.34 3.57 c0 1.4267 -0.43666 2.6066 -1.31 3.54 s-2.0366 1.4133 -3.49 1.44 c-0.65334 0 -1.2833 -0.14 -1.89 -0.42 s-1.0833 -0.67334 -1.43 -1.18 l-0.04 0 l0 1.36 l-1.8 0 l0 -15.12 l1.8 0 z M3.16 15.26 c0 0.98666 0.28338 1.7767 0.85004 2.37 s1.3233 0.90334 2.27 0.93 c0.94666 0 1.7033 -0.30666 2.27 -0.92 s0.85 -1.4067 0.85 -2.38 s-0.28 -1.7633 -0.84 -2.37 s-1.3267 -0.91666 -2.3 -0.93 c-0.94666 0 -1.7 0.31 -2.26 0.93 s-0.84 1.41 -0.84 2.37 z M15.52 4.880000000000001 l0 15.12 l-1.8 0 l0 -15.12 l1.8 0 z M19.439999999999998 5.800000000000001 c0.36 0 0.67002 0.13002 0.93002 0.39002 s0.39 0.57 0.39 0.93 c0 0.37334 -0.13334 0.68668 -0.4 0.94002 s-0.57332 0.38 -0.91998 0.38 c-0.37334 0 -0.68668 -0.12666 -0.94002 -0.38 s-0.38 -0.56668 -0.38 -0.94002 s0.13334 -0.68668 0.4 -0.94002 s0.57332 -0.38 0.91998 -0.38 z M20.34 10.52 l0 9.48 l-1.8 0 l0 -9.48 l1.8 0 z M28.16 10.28 c1.0667 0 1.9033 0.32 2.51 0.96 s0.91666 1.5 0.93 2.58 l0 6.18 l-1.8 0 l0 -5.66 c0 -0.73334 -0.19 -1.3133 -0.57 -1.74 s-0.91 -0.64 -1.59 -0.64 c-0.84 0 -1.49 0.28 -1.95 0.84 s-0.69 1.3067 -0.69 2.24 l0 4.96 l-1.8 0 l0 -9.48 l1.8 0 l0 1.46 l0.04 0 c0.25334 -0.53334 0.66334 -0.95 1.23 -1.25 s1.1967 -0.45 1.89 -0.45 z M36.120000000000005 4.880000000000001 l0 9.76 l4.1 -4.12 l2.5 0 l-4.44 4.32 l4.8 5.16 l-2.56 0 l-4.4 -4.92 l0 4.92 l-1.8 0 l0 -15.12 l1.8 0 z M46.5 4.880000000000001 l0.000019531 7 l0.04 0 c0.32 -0.49334 0.78334 -0.88334 1.39 -1.17 s1.2433 -0.43 1.91 -0.43 c1.4267 0 2.5866 0.47 3.48 1.41 s1.34 2.13 1.34 3.57 c0 1.4267 -0.43666 2.6066 -1.31 3.54 s-2.0366 1.4133 -3.49 1.44 c-0.65334 0 -1.2833 -0.14 -1.89 -0.42 s-1.0833 -0.67334 -1.43 -1.18 l-0.04 0 l0 1.36 l-1.8 0 l0 -15.12 l1.8 0 z M46.5 15.26 c0 0.98666 0.28338 1.7767 0.85004 2.37 s1.3233 0.90334 2.27 0.93 c0.94666 0 1.7033 -0.30666 2.27 -0.92 s0.85 -1.4067 0.85 -2.38 s-0.28 -1.7633 -0.84 -2.37 s-1.3267 -0.91666 -2.3 -0.93 c-0.94666 0 -1.7 0.31 -2.26 0.93 s-0.84 1.41 -0.84 2.37 z M60.72 10.28 c1.2 0 2.15 0.27328 2.85 0.81994 s1.07 1.3067 1.11 2.28 l0 5.08 c0 0.48 0.02666 0.99334 0.08 1.54 l-1.6 0 c-0.04 -0.42666 -0.06 -0.90666 -0.06 -1.44 l-0.04 0 c-0.41334 0.61334 -0.89 1.0467 -1.43 1.3 s-1.17 0.38 -1.89 0.38 c-0.97334 0 -1.7633 -0.26 -2.37 -0.78 s-0.91 -1.2067 -0.91 -2.06 c0 -1.08 0.45334 -1.8967 1.36 -2.45 s2.1866 -0.83 3.84 -0.83 l1.34 0 l0 -0.34 c0 -0.64 -0.21 -1.1433 -0.63 -1.51 s-0.97 -0.55 -1.65 -0.55 c-0.50666 0 -0.95 0.07666 -1.33 0.23 s-0.83 0.43668 -1.35 0.85002 l-1.08 -1.12 c1.0267 -0.90666 2.28 -1.3733 3.76 -1.4 z M58.260000000000005 17.259999999999998 c0 1.0267 0.68002 1.54 2.04 1.54 c0.81334 0 1.4633 -0.24334 1.95 -0.73 s0.73666 -1.19 0.75 -2.11 l0 -0.52 l-1.02 0 c-1.1733 0 -2.0866 0.15 -2.74 0.45 s-0.98 0.75666 -0.98 1.37 z M70.5 10.28 c0.72 0 1.3633 0.13338 1.93 0.40004 s1.0033 0.65332 1.31 1.16 l-1.4 1.06 c-0.53334 -0.62666 -1.18 -0.94 -1.94 -0.94 c-0.45334 0 -0.83 0.1 -1.13 0.3 s-0.45 0.45334 -0.45 0.76 c0 0.66666 0.62 1.12 1.86 1.36 c1.2133 0.22666 2.07 0.56 2.57 1 s0.75 1.0667 0.75 1.88 c0 0.92 -0.35 1.6433 -1.05 2.17 s-1.6367 0.79666 -2.81 0.81 c-0.88 0 -1.6033 -0.13666 -2.17 -0.41 s-1.0567 -0.69668 -1.47 -1.27 l1.36 -1.12 c0.72 0.74666 1.4867 1.12 2.3 1.12 c0.53334 0 0.98668 -0.10666 1.36 -0.32 s0.56 -0.50668 0.56 -0.88002 c0 -0.65334 -0.6 -1.1067 -1.8 -1.36 c-1.3333 -0.26666 -2.23 -0.62332 -2.69 -1.07 s-0.69 -1.0233 -0.69 -1.73 c0 -0.88 0.34 -1.5833 1.02 -2.11 s1.54 -0.79666 2.58 -0.81 z M77.97999999999999 4.880000000000001 l0 9.76 l4.1 -4.12 l2.5 0 l-4.44 4.32 l4.8 5.16 l-2.56 0 l-4.4 -4.92 l0 4.92 l-1.8 0 l0 -15.12 l1.8 0 z M90.89999999999999 10.28 c1.4533 0 2.5834 0.45664 3.39 1.37 s1.2167 2.17 1.23 3.77 l0 0.5 l-7.6 0 c0 0.77334 0.31 1.4233 0.93 1.95 s1.3767 0.79666 2.27 0.81 c0.98666 0 1.8533 -0.47334 2.6 -1.42 l1.36 1.04 c-1.0133 1.2933 -2.4134 1.94 -4.2 1.94 c-1.4533 0 -2.6234 -0.46334 -3.51 -1.39 s-1.3433 -2.1234 -1.37 -3.59 c0 -1.4133 0.45666 -2.59 1.37 -3.53 s2.09 -1.4233 3.53 -1.45 z M93.6 14.48 c-0.02666 -0.89334 -0.28 -1.5767 -0.76 -2.05 s-1.14 -0.71 -1.98 -0.71 c-0.56 0 -1.0633 0.13666 -1.51 0.41 s-0.79666 0.62668 -1.05 1.06 s-0.38 0.86334 -0.38 1.29 l5.68 0 z M100.17999999999999 7.859999999999999 l-0.000019531 2.66 l2.58 0 l0 1.56 l-2.58 0 l0 4.56 c0 0.61334 0.08666 1.0867 0.26 1.42 s0.54 0.5 1.1 0.5 c0.53334 0 0.96 -0.09334 1.28 -0.28 l0 1.64 c-0.34666 0.18666 -0.89332 0.29332 -1.64 0.31998 c-0.72 0 -1.2767 -0.11 -1.67 -0.33 s-0.68 -0.52666 -0.86 -0.92 s-0.27 -1.01 -0.27 -1.85 l0 -5.06 l-2.08 0 l0 -1.56 l2.08 0 l0 -2.66 l1.8 0 z"></path></g></svg>